<?xml version="1.0" encoding="UTF-8" standalone="no"?>
<!-- Created with Inkscape (http://www.inkscape.org/) -->

<svg
   xmlns:dc="http://purl.org/dc/elements/1.1/"
   xmlns:cc="http://creativecommons.org/ns#"
   xmlns:rdf="http://www.w3.org/1999/02/22-rdf-syntax-ns#"
   xmlns:svg="http://www.w3.org/2000/svg"
   xmlns="http://www.w3.org/2000/svg"
   xmlns:xlink="http://www.w3.org/1999/xlink"
   xmlns:sodipodi="http://sodipodi.sourceforge.net/DTD/sodipodi-0.dtd"
   xmlns:inkscape="http://www.inkscape.org/namespaces/inkscape"
   width="744.09448819"
   height="1052.3622047"
   id="svg2"
   version="1.1"
   inkscape:version="0.48.3.1 r9886"
   sodipodi:docname="New document 1">
  <defs
     id="defs4">
    <linearGradient
       inkscape:collect="always"
       id="linearGradient4092">
      <stop
         style="stop-color:#72a7d7;stop-opacity:1"
         offset="0"
         id="stop4094" />
      <stop
         style="stop-color:#357cbc;stop-opacity:0;"
         offset="1"
         id="stop4096" />
    </linearGradient>
    <linearGradient
       id="linearGradient4060">
      <stop
         style="stop-color:#ff0000;stop-opacity:1;"
         offset="0"
         id="stop4062" />
      <stop
         style="stop-color:#ff0000;stop-opacity:0;"
         offset="1"
         id="stop4064" />
    </linearGradient>
    <inkscape:path-effect
       effect="spiro"
       id="path-effect3927"
       is_visible="true" />
    <linearGradient
       id="linearGradient3893">
      <stop
         style="stop-color:#83d0e7;stop-opacity:1;"
         offset="0"
         id="stop3895" />
      <stop
         style="stop-color:#ffffff;stop-opacity:1;"
         offset="1"
         id="stop3897" />
    </linearGradient>
    <linearGradient
       inkscape:collect="always"
       xlink:href="#linearGradient3893"
       id="linearGradient3901"
       x1="235.11516"
       y1="437.03824"
       x2="235.6447"
       y2="481.5195"
       gradientUnits="userSpaceOnUse" />
    <linearGradient
       inkscape:collect="always"
       xlink:href="#linearGradient3893"
       id="linearGradient4038"
       x1="254.17856"
       y1="509.58505"
       x2="253.11948"
       y2="446.56995"
       gradientUnits="userSpaceOnUse" />
    <linearGradient
       inkscape:collect="always"
       xlink:href="#linearGradient3893"
       id="linearGradient4040"
       gradientUnits="userSpaceOnUse"
       x1="254.17856"
       y1="509.58505"
       x2="253.11948"
       y2="443.92224" />
    <linearGradient
       inkscape:collect="always"
       xlink:href="#linearGradient4060"
       id="linearGradient4066"
       x1="274.30103"
       y1="628.44165"
       x2="274.52036"
       y2="549.41626"
       gradientUnits="userSpaceOnUse"
       gradientTransform="matrix(1,0,0,-0.63293534,-21.181546,815.00187)" />
    <linearGradient
       inkscape:collect="always"
       xlink:href="#linearGradient4092"
       id="linearGradient4098"
       x1="253.36444"
       y1="634.21436"
       x2="254.40654"
       y2="540.23779"
       gradientUnits="userSpaceOnUse"
       gradientTransform="matrix(1,0,0,0.63293534,-21.181546,-815.00187)" />
    <linearGradient
       inkscape:collect="always"
       xlink:href="#linearGradient3893"
       id="linearGradient4100"
       gradientUnits="userSpaceOnUse"
       x1="254.17856"
       y1="509.58505"
       x2="253.11948"
       y2="446.56995" />
    <linearGradient
       inkscape:collect="always"
       xlink:href="#linearGradient3893"
       id="linearGradient4102"
       gradientUnits="userSpaceOnUse"
       x1="254.17856"
       y1="509.58505"
       x2="253.11948"
       y2="446.56995" />
  </defs>
  <sodipodi:namedview
     id="base"
     pagecolor="#ffffff"
     bordercolor="#666666"
     borderopacity="1.0"
     inkscape:pageopacity="0.0"
     inkscape:pageshadow="2"
     inkscape:zoom="1.3353261"
     inkscape:cx="161.61894"
     inkscape:cy="595.38122"
     inkscape:document-units="px"
     inkscape:current-layer="layer1"
     showgrid="false"
     inkscape:window-width="1440"
     inkscape:window-height="839"
     inkscape:window-x="-9"
     inkscape:window-y="-9"
     inkscape:window-maximized="1" />
  <metadata
     id="metadata7">
    <rdf:RDF>
      <cc:Work
         rdf:about="">
        <dc:format>image/svg+xml</dc:format>
        <dc:type
           rdf:resource="http://purl.org/dc/dcmitype/StillImage" />
        <dc:title></dc:title>
      </cc:Work>
    </rdf:RDF>
  </metadata>
  <g
     inkscape:label="Layer 1"
     inkscape:groupmode="layer"
     id="layer1">
    <flowRoot
       xml:space="preserve"
       id="flowRoot2985"
       style="fill:black;stroke:none;stroke-opacity:1;stroke-width:1px;stroke-linejoin:miter;stroke-linecap:butt;fill-opacity:1;font-family:Cooper Black;font-style:normal;font-weight:normal;font-size:72px;line-height:125%;letter-spacing:0px;word-spacing:0px;-inkscape-font-specification:Cooper Black"><flowRegion
         id="flowRegion2987"><rect
           id="rect2989"
           width="483.83044"
           height="192.08791"
           x="71.491364"
           y="161.24759"
           style="font-size:72px" /></flowRegion><flowPara
         id="flowPara2991"></flowPara></flowRoot>    <text
       xml:space="preserve"
       style="font-size:72px;font-style:normal;font-weight:normal;line-height:125%;letter-spacing:0px;word-spacing:0px;fill:#a8dced;fill-opacity:1;stroke:none;font-family:Cooper Black;-inkscape-font-specification:Cooper Black"
       x="119.8744"
       y="307.841"
       id="text2993"
       sodipodi:linespacing="125%"><tspan
         sodipodi:role="line"
         id="tspan2995"
         x="119.8744"
         y="307.841"
         style="fill:#a8dced;fill-opacity:1">KARM</tspan></text>
    <text
       xml:space="preserve"
       style="font-size:72px;font-style:normal;font-weight:normal;line-height:125%;letter-spacing:0px;word-spacing:0px;fill:#79c9e2;fill-opacity:1;stroke:none;font-family:Cooper Black;-inkscape-font-specification:Cooper Black"
       x="120.01891"
       y="309.22729"
       id="text2993-1-4"
       sodipodi:linespacing="125%"><tspan
         sodipodi:role="line"
         id="tspan2995-7-0"
         x="120.01891"
         y="309.22729"
         style="fill:#79c9e2;fill-opacity:1">KARM</tspan></text>
    <text
       xml:space="preserve"
       style="font-size:72px;font-style:normal;font-weight:normal;line-height:125%;letter-spacing:0px;word-spacing:0px;fill:#31acd3;fill-opacity:1;stroke:none;font-family:Cooper Black;-inkscape-font-specification:Cooper Black"
       x="121.54343"
       y="310.64484"
       id="text2993-1"
       sodipodi:linespacing="125%"><tspan
         sodipodi:role="line"
         id="tspan2995-7"
         x="121.54343"
         y="310.64484"
         style="fill:#31acd3;fill-opacity:1">KARM</tspan></text>
    <g
       id="g3943"
       transform="translate(84.196646,-59.837868)">
      <rect
         y="420.62256"
         x="116.4985"
         height="59.308331"
         width="70.428642"
         id="rect3919"
         style="fill:none;stroke:#357cbc;stroke-width:4;stroke-miterlimit:4;stroke-opacity:1;stroke-dasharray:none" />
      <path
         inkscape:connector-curvature="0"
         d="m 141.20934,439.20869 c 0.17081,1.47414 0.33026,2.9441 0.68921,4.38605 0.62259,1.90463 0.93138,3.87845 1.22893,5.85302 0.24375,2.15338 1.05221,4.17004 1.67437,6.22833 0.68379,2.46923 1.19823,4.98356 1.6534,7.50414 0.2387,1.04019 0.53994,2.06427 0.80701,3.09715 0.002,0.007 0.31069,1.32991 0.41006,1.48353 0.0721,0.11152 -0.041,-0.26245 -0.0615,-0.39367 -2.2149,1.17348 -4.35233,2.50661 -6.64471,3.52046 -0.22415,0.0991 0.16653,-0.46104 0.24903,-0.69184 0.12416,-0.34738 0.24476,-0.69604 0.37095,-1.04269 0.4941,-1.35734 1.00026,-2.70934 1.48435,-4.0704 1.89552,-4.98676 4.61394,-9.60567 7.24546,-14.22809 5.57288,-10.18286 12.38654,-19.60954 19.56847,-28.70385 4.5991,-6.10045 10.5725,-10.91486 16.42776,-15.74244 2.1728,-1.84719 4.50391,-3.49354 6.81033,-5.16658 0.21774,-0.16445 0.43548,-0.3289 0.65322,-0.49334 0,0 7.1797,-2.8647 7.1797,-2.8647 l 0,0 c -0.22239,0.17352 -0.44478,0.34704 -0.66717,0.52056 -2.413,1.75893 -4.92799,3.38196 -7.22899,5.29091 -6.09726,4.87331 -12.34996,9.70035 -17.18264,15.89683 -1.18866,1.45604 -2.40919,2.88663 -3.56598,4.36812 -5.89916,7.55509 -11.26489,15.54692 -15.67744,24.06422 -2.38054,4.54781 -4.91925,9.04862 -6.7353,13.86165 -0.45055,1.33721 -0.92267,2.66827 -1.3691,4.00659 -0.10832,0.32471 -0.2124,0.65107 -0.30364,0.98099 -0.0639,0.23094 0.0341,0.56189 -0.16141,0.70046 -2.22341,1.57618 -4.62355,2.88693 -6.93532,4.33039 -0.44524,-0.65441 -0.4427,-1.19251 -0.62184,-1.96884 -0.2451,-1.0622 -0.54935,-2.10903 -0.80913,-3.16755 -0.39822,-2.49908 -0.86661,-4.99899 -1.59483,-7.42482 -0.64134,-2.08271 -1.51383,-4.11613 -1.77328,-6.29507 -0.32678,-1.94055 -0.51847,-3.91017 -1.1949,-5.77555 -0.42657,-1.42957 -0.60009,-2.89304 -0.857,-4.35786 0,0 6.9319,-3.70611 6.9319,-3.70611 z"
         id="path3931"
         style="fill:#ff0000;fill-opacity:1;stroke:#ff0000;stroke-width:4;stroke-miterlimit:4;stroke-opacity:1;stroke-dasharray:none" />
    </g>
    <rect
       style="fill:#ffffff;fill-opacity:1;stroke:url(#linearGradient4098);stroke-width:3.18228936000000000;stroke-miterlimit:4;stroke-opacity:1;stroke-dasharray:none"
       id="rect3919-8"
       width="70.428642"
       height="37.538338"
       x="199.98224"
       y="-464.8024"
       transform="scale(1,-1)" />
    <path
       style="fill:url(#linearGradient4066);fill-opacity:1;stroke:#ff0000;stroke-width:3.18228936000000000;stroke-miterlimit:4;stroke-opacity:0;stroke-dasharray:none"
       id="path3931-8"
       d="m 224.69307,453.03858 c 0.17081,-0.93304 0.33026,-1.86343 0.68921,-2.77609 0.62259,-1.20551 0.93138,-2.45481 1.22893,-3.70458 0.24375,-1.36295 1.05221,-2.63937 1.67437,-3.94213 0.68379,-1.56286 1.19823,-3.15427 1.6534,-4.74964 0.2387,-0.65837 0.53994,-1.30655 0.80701,-1.96029 0.002,-0.004 0.31069,-0.84175 0.41006,-0.93898 0.0721,-0.0706 -0.041,0.16611 -0.0615,0.24917 -2.2149,-0.74274 -4.35233,-1.58653 -6.64471,-2.22823 -0.22415,-0.0627 0.16653,0.29181 0.24903,0.43789 0.12416,0.21987 0.24476,0.44055 0.37095,0.65996 0.4941,0.85911 1.00026,1.71483 1.48435,2.5763 1.89552,3.15629 4.61394,6.07977 7.24546,9.00546 5.57288,6.44509 12.38654,12.41157 19.56847,18.16768 4.5991,3.86119 10.5725,6.9084 16.42776,9.96395 2.1728,1.16915 4.50391,2.21118 6.81033,3.27011 0.21774,0.10408 0.43548,0.20817 0.65322,0.31225 0,0 7.1797,1.81317 7.1797,1.81317 l 0,0 c -0.22239,-0.10983 -0.44478,-0.21965 -0.66717,-0.32948 -2.413,-1.11329 -4.92799,-2.14056 -7.22899,-3.3488 -6.09726,-3.0845 -12.34996,-6.1397 -17.18264,-10.06167 -1.18866,-0.92158 -2.40919,-1.82705 -3.56598,-2.76474 -5.89916,-4.78188 -11.26489,-9.84019 -15.67744,-15.23109 -2.38054,-2.87847 -4.91925,-5.72719 -6.7353,-8.77353 -0.45055,-0.84637 -0.92267,-1.68884 -1.3691,-2.53591 -0.10832,-0.20552 -0.2124,-0.41209 -0.30364,-0.62091 -0.0639,-0.14617 0.0341,-0.35564 -0.16141,-0.44334 -2.22341,-0.99762 -4.62355,-1.82724 -6.93532,-2.74086 -0.44524,0.4142 -0.4427,0.75478 -0.62184,1.24615 -0.2451,0.6723 -0.54935,1.33488 -0.80913,2.00485 -0.39822,1.58176 -0.86661,3.16404 -1.59483,4.69943 -0.64134,1.31822 -1.51383,2.60525 -1.77328,3.98438 -0.32678,1.22824 -0.51847,2.47488 -1.1949,3.65555 -0.42657,0.90482 -0.60009,1.8311 -0.857,2.75824 0,0 6.9319,2.34573 6.9319,2.34573 z"
       inkscape:connector-curvature="0" />
  </g>
</svg>
